<svg width="3819" height="1872" viewBox="0 0 3819 1872" fill="none" xmlns="http://www.w3.org/2000/svg">
<path d="M511.971 832.621L579.87 764.751L723.899 332.834H1156V1340.65L531.857 1340.67C505.344 1340.67 483.849 1319.18 483.849 1292.68V900.495C483.849 875.04 493.964 850.625 511.971 832.621Z" fill="#DBD9DC"/>
<path d="M579.865 764.756L659.889 524.799H963.959V764.756C963.959 791.261 942.463 812.748 915.95 812.748H531.857L579.865 764.756Z" fill="#5D5360"/>
<path d="M659.89 524.807H963.959V668.776H611.881L659.89 524.807Z" fill="#4B3F4E"/>
<path d="M3413.58 41.8055H1205.05C1178.54 41.8055 1157.04 63.292 1157.04 89.7978V1193.59H3413.58C3440.1 1193.59 3461.59 1172.1 3461.59 1145.6V89.7892C3461.59 63.2876 3440.1 41.8055 3413.58 41.8055Z" fill="#96C3F0"/>
<path d="M1156.01 1196.67H3412.55C3439.06 1196.67 3460.56 1175.19 3460.56 1148.69V1004.71H1156.01V1196.67Z" fill="#7DA5D7"/>
<path d="M963.959 1388.64H3268.51C3295.02 1388.64 3316.52 1367.16 3316.52 1340.65V1196.68H963.959V1388.64Z" fill="#6F6571"/>
<path d="M963.955 1580.56C857.903 1580.56 771.934 1494.62 771.934 1388.62C771.934 1282.61 857.903 1196.68 963.955 1196.68C1070 1196.68 1155.97 1282.61 1155.97 1388.62C1155.97 1494.62 1070 1580.56 963.955 1580.56Z" fill="#4B3F4E"/>
<path d="M2548.32 1580.56C2442.27 1580.56 2356.3 1494.62 2356.3 1388.62C2356.3 1282.61 2442.27 1196.68 2548.32 1196.68C2654.37 1196.68 2740.34 1282.61 2740.34 1388.62C2740.34 1494.62 2654.37 1580.56 2548.32 1580.56Z" fill="#4B3F4E"/>
<path d="M2932.42 1580.56C2826.36 1580.56 2740.4 1494.62 2740.4 1388.62C2740.4 1282.61 2826.36 1196.68 2932.42 1196.68C3038.46 1196.68 3124.43 1282.61 3124.43 1388.62C3124.43 1494.62 3038.46 1580.56 2932.42 1580.56Z" fill="#4B3F4E"/>
<path d="M2931.95 1343.72H2932.43C2957.24 1343.72 2977.11 1363.83 2977.11 1388.62C2977.11 1413.42 2956.76 1433.52 2931.95 1433.52C2907.14 1433.52 2887.03 1413.42 2887.03 1388.62C2887.03 1363.83 2907.14 1343.72 2931.95 1343.72Z" fill="black"/>
<path d="M2547.86 1343.72H2548.34C2573.15 1343.72 2593.02 1363.83 2593.02 1388.62C2593.02 1413.42 2572.66 1433.52 2547.86 1433.52C2523.05 1433.52 2502.94 1413.42 2502.94 1388.62C2502.94 1363.83 2523.05 1343.72 2547.86 1343.72Z" fill="black"/>
<path d="M963.482 1343.72H963.959C988.768 1343.72 1008.64 1363.83 1008.64 1388.62C1008.64 1413.42 988.287 1433.52 963.482 1433.52C938.672 1433.52 918.561 1413.42 918.561 1388.62C918.561 1363.83 938.672 1343.72 963.482 1343.72Z" fill="black"/>
<path d="M480.211 800.87L540.605 740.498L662.283 375.628C644.126 369.859 630.97 352.89 630.97 332.838C630.97 308.039 651.082 287.936 675.891 287.936H1111.08V92.8937C1111.08 41.6702 1152.77 0 1204.01 0H3412.55C3463.78 0.00851455 3505.48 41.6829 3505.48 92.8937V1148.69C3505.48 1199.91 3463.78 1241.58 3412.55 1241.58H3361.44V1340.63C3361.44 1391.85 3319.76 1433.52 3268.51 1433.52H3165.07C3144.01 1542.72 3047.74 1625.48 2932.43 1625.48C2853.48 1625.48 2783.47 1586.65 2740.39 1527.13C2697.3 1586.65 2627.29 1625.48 2548.34 1625.48C2433.04 1625.48 2336.76 1542.72 2315.7 1433.52H1196.6C1175.55 1542.72 1079.27 1625.48 963.963 1625.48C833.303 1625.48 727 1519.22 727 1388.62C727 1387.59 727.068 1386.58 727.081 1385.55H531.861C480.616 1385.55 438.932 1343.89 438.932 1292.66V900.477C438.928 862.852 453.588 827.474 480.211 800.87ZM3165.07 1343.72H3268.51C3270.22 1343.72 3271.61 1342.34 3271.61 1340.63V1241.59H3118.01C3141.25 1270.84 3157.73 1305.66 3165.07 1343.72ZM2932.43 1535.69C3013.56 1535.69 3079.56 1469.72 3079.56 1388.63C3079.56 1307.86 3014.05 1242.09 2933.35 1241.59H2931.5C2850.8 1242.09 2785.3 1307.85 2785.3 1388.63C2785.3 1469.71 2851.31 1535.69 2932.43 1535.69ZM2548.34 1535.69C2629.46 1535.69 2695.47 1469.72 2695.47 1388.63C2695.47 1307.86 2629.96 1242.09 2549.26 1241.59H2547.41C2466.71 1242.09 2401.21 1307.85 2401.21 1388.63C2401.21 1469.71 2467.21 1535.69 2548.34 1535.69ZM1196.6 1343.72H2315.7C2323.03 1305.66 2339.52 1270.83 2362.77 1241.58H1492.09C1467.28 1241.58 1447.17 1221.48 1447.17 1196.68C1447.17 1171.88 1467.28 1151.78 1492.09 1151.78H3412.55C3414.25 1151.78 3415.64 1150.4 3415.64 1148.69V92.8937C3415.64 91.1865 3414.25 89.8029 3412.55 89.8029H1204.02C1202.31 89.8029 1200.93 91.1865 1200.93 92.8937V1151.78H1300.02C1324.83 1151.78 1344.94 1171.89 1344.94 1196.69C1344.94 1221.48 1324.83 1241.59 1300.02 1241.59H1149.53C1172.78 1270.84 1189.26 1305.66 1196.6 1343.72ZM626.187 767.838H915.95C917.654 767.838 919.038 766.458 919.038 764.751V569.696H692.263L626.187 767.838ZM963.959 1535.69C1045.09 1535.69 1111.08 1469.72 1111.08 1388.63C1111.08 1307.86 1045.58 1242.09 964.874 1241.59H963.954C963.852 1241.59 963.75 1241.58 963.644 1241.57C882.661 1241.74 816.824 1307.65 816.824 1388.63C816.837 1469.71 882.832 1535.69 963.959 1535.69ZM528.765 1007.82H579.87C604.675 1007.82 624.786 1027.92 624.786 1052.71C624.786 1077.51 604.675 1097.61 579.87 1097.61H528.765V1292.67C528.765 1294.38 530.149 1295.76 531.857 1295.76H745.987C782.193 1211.19 866.255 1151.77 963.959 1151.77C964.27 1151.77 964.572 1151.79 964.883 1151.79H1111.08V380.839V380.817C1111.08 379.11 1109.7 377.727 1107.99 377.727H756.277L722.213 479.884H963.959C988.768 479.884 1008.88 499.991 1008.88 524.786V764.743C1008.88 815.966 967.191 857.636 915.95 857.636H550.465L543.736 864.363C534.084 874.014 528.765 886.837 528.765 900.482V1007.82Z" fill="black"/>
<path d="M3268.51 1049.62H1348.06C1323.25 1049.62 1303.14 1029.52 1303.14 1004.72C1303.14 979.923 1323.25 959.82 1348.06 959.82H3268.51C3293.32 959.82 3313.43 979.923 3313.43 1004.72C3313.43 1029.52 3293.32 1049.62 3268.51 1049.62Z" fill="black"/>
<path d="M3819 1621.63H0V1749.34H3819V1621.63Z" fill="black"/>
<path d="M2653.66 621.166C2653.66 821.02 2491.58 983.034 2291.64 983.034C2091.7 983.034 1929.61 821.02 1929.61 621.166C1929.61 421.313 2091.7 259.298 2291.64 259.298C2491.58 259.298 2653.66 421.313 2653.66 621.166Z" fill="white"/>
<path d="M2547.18 621.166C2547.18 762.239 2432.77 876.603 2291.64 876.603C2150.5 876.603 2036.09 762.239 2036.09 621.166C2036.09 480.093 2150.5 365.73 2291.64 365.73C2432.77 365.73 2547.18 480.093 2547.18 621.166Z" fill="white" stroke="black" stroke-width="3"/>
<path d="M2398.11 940.462H2185.16V1621.63H2398.11V940.462Z" fill="white"/>
<path d="M2355.52 897.889H2227.75V1621.63H2355.52V897.889Z" fill="#050505"/>
<path d="M2291.64 685.025C2326.92 685.025 2355.52 656.435 2355.52 621.166C2355.52 585.898 2326.92 557.307 2291.64 557.307C2256.35 557.307 2227.75 585.898 2227.75 621.166C2227.75 656.435 2256.35 685.025 2291.64 685.025Z" fill="black"/>
<path d="M2270.34 599.88L2419.41 493.448L2312.93 642.453L2270.34 599.88Z" fill="black"/>
<ellipse cx="2525.57" cy="823.712" rx="20.3792" ry="20.3704" fill="black"/>
<ellipse cx="2597.68" cy="641.946" rx="20.3792" ry="20.3703" fill="black"/>
<ellipse cx="2550.65" cy="453.913" rx="20.379" ry="20.3703" fill="black"/>
<ellipse cx="2296.7" cy="303.486" rx="20.3792" ry="20.3703" fill="black"/>
<ellipse cx="2027.07" cy="453.913" rx="20.379" ry="20.3703" fill="black"/>
<ellipse cx="1986.31" cy="641.946" rx="20.379" ry="20.3703" fill="black"/>
<ellipse cx="2055.29" cy="823.712" rx="20.3791" ry="20.3704" fill="black"/>
<path fill-rule="evenodd" clip-rule="evenodd" d="M732 1676H649V1799C649 1838.21 680.788 1870 720 1870H1208C1247.21 1870 1279 1838.21 1279 1799V1676H1195V1720C1195 1759.21 1163.21 1791 1124 1791H803C763.788 1791 732 1759.21 732 1720V1676Z" fill="black"/>
<path fill-rule="evenodd" clip-rule="evenodd" d="M2577 1676H2494V1799C2494 1838.21 2525.79 1870 2565 1870H3053C3092.21 1870 3124 1838.21 3124 1799V1676H3040V1720C3040 1759.21 3008.21 1791 2969 1791H2648C2608.79 1791 2577 1759.21 2577 1720V1676Z" fill="black"/>
</svg>
